<?xml version="1.0" encoding="UTF-8" standalone="no"?>
<svg xmlns="http://www.w3.org/2000/svg" xmlns:xlink="http://www.w3.org/1999/xlink" contentScriptType="application/ecmascript" contentStyleType="text/css" height="345px" preserveAspectRatio="none" style="width:2040px;height:345px;" version="1.1" viewBox="0 0 2040 345" width="2040px" zoomAndPan="magnify"><defs><filter height="300%" id="f1vfaf3uqcg5f2" width="300%" x="-1" y="-1"><feGaussianBlur result="blurOut" stdDeviation="2.0"/><feColorMatrix in="blurOut" result="blurOut2" type="matrix" values="0 0 0 0 0 0 0 0 0 0 0 0 0 0 0 0 0 0 .4 0"/><feOffset dx="4.0" dy="4.0" in="blurOut2" result="blurOut3"/><feBlend in="SourceGraphic" in2="blurOut3" mode="normal"/></filter></defs><g><!--MD5=[7442f3b126ee602ae02566c1a49e158a]
cluster api--><polygon fill="#FFFFFF" filter="url(#f1vfaf3uqcg5f2)" points="696,24,727,24,734,46.2969,1032,46.2969,1032,111,696,111,696,24" style="stroke: #000000; stroke-width: 1.5;"/><line style="stroke: #000000; stroke-width: 1.5;" x1="696" x2="734" y1="46.2969" y2="46.2969"/><text fill="#000000" font-family="sans-serif" font-size="14" font-weight="bold" lengthAdjust="spacingAndGlyphs" textLength="25" x="700" y="38.9951">api</text><!--MD5=[46f6f0e66b75c0d5810fee4577cc53ad]
cluster greeter-de--><polygon fill="#FFFFFF" filter="url(#f1vfaf3uqcg5f2)" points="22,135,116,135,123,157.2969,674,157.2969,674,222,22,222,22,135" style="stroke: #000000; stroke-width: 1.5;"/><line style="stroke: #000000; stroke-width: 1.5;" x1="22" x2="123" y1="157.2969" y2="157.2969"/><text fill="#000000" font-family="sans-serif" font-size="14" font-weight="bold" lengthAdjust="spacingAndGlyphs" textLength="88" x="26" y="149.9951">greeter-de</text><!--MD5=[869cd2055216a112eb95782846e7489d]
cluster greeter-en--><polygon fill="#FFFFFF" filter="url(#f1vfaf3uqcg5f2)" points="698,135,792,135,799,157.2969,1349,157.2969,1349,222,698,222,698,135" style="stroke: #000000; stroke-width: 1.5;"/><line style="stroke: #000000; stroke-width: 1.5;" x1="698" x2="799" y1="157.2969" y2="157.2969"/><text fill="#000000" font-family="sans-serif" font-size="14" font-weight="bold" lengthAdjust="spacingAndGlyphs" textLength="88" x="702" y="149.9951">greeter-en</text><!--MD5=[b49f2da5b2ca71411de3aef204b8c2e8]
cluster greeter-fr--><polygon fill="#FFFFFF" filter="url(#f1vfaf3uqcg5f2)" points="1373,135,1461,135,1468,157.2969,2018,157.2969,2018,222,1373,222,1373,135" style="stroke: #000000; stroke-width: 1.5;"/><line style="stroke: #000000; stroke-width: 1.5;" x1="1373" x2="1468" y1="157.2969" y2="157.2969"/><text fill="#000000" font-family="sans-serif" font-size="14" font-weight="bold" lengthAdjust="spacingAndGlyphs" textLength="82" x="1377" y="149.9951">greeter-fr</text><!--MD5=[d5ac3844f66b12d9e08170e47495e096]
cluster app--><polygon fill="#FFFFFF" filter="url(#f1vfaf3uqcg5f2)" points="693,246,729,246,736,268.2969,1035,268.2969,1035,333,693,333,693,246" style="stroke: #000000; stroke-width: 1.5;"/><line style="stroke: #000000; stroke-width: 1.5;" x1="693" x2="736" y1="268.2969" y2="268.2969"/><text fill="#000000" font-family="sans-serif" font-size="14" font-weight="bold" lengthAdjust="spacingAndGlyphs" textLength="30" x="697" y="260.9951">app</text><!--MD5=[8697636c1797c31360bfc3fb07e82769]
entity com.example.greeter:greeter-api@1.0.0--><rect fill="#FEFECE" filter="url(#f1vfaf3uqcg5f2)" height="36.2969" style="stroke: #A80036; stroke-width: 1.5;" width="303" x="712.5" y="59"/><rect fill="#FEFECE" height="5" style="stroke: #A80036; stroke-width: 1.5;" width="10" x="707.5" y="64"/><rect fill="#FEFECE" height="5" style="stroke: #A80036; stroke-width: 1.5;" width="10" x="707.5" y="85.2969"/><text fill="#000000" font-family="sans-serif" font-size="14" lengthAdjust="spacingAndGlyphs" textLength="283" x="722.5" y="81.9951">com.example.greeter:greeter-api@1.0.0</text><!--MD5=[65eff201f45d1d388ae2d501c83de209]
entity com.example.greeter:greeter-de@1.0.0--><rect fill="#FEFECE" filter="url(#f1vfaf3uqcg5f2)" height="36.2969" style="stroke: #A80036; stroke-width: 1.5;" width="301" x="38.5" y="170"/><rect fill="#FEFECE" height="5" style="stroke: #A80036; stroke-width: 1.5;" width="10" x="33.5" y="175"/><rect fill="#FEFECE" height="5" style="stroke: #A80036; stroke-width: 1.5;" width="10" x="33.5" y="196.2969"/><text fill="#000000" font-family="sans-serif" font-size="14" lengthAdjust="spacingAndGlyphs" textLength="281" x="48.5" y="192.9951">com.example.greeter:greeter-de@1.0.0</text><!--MD5=[135a36207c1b19daa56a320670c760de]
entity com.example.greeter:date-util@2.0.0--><rect fill="#FEFECE" filter="url(#f1vfaf3uqcg5f2)" height="36.2969" style="stroke: #A80036; stroke-width: 1.5;" width="283" x="374.5" y="170"/><rect fill="#FEFECE" height="5" style="stroke: #A80036; stroke-width: 1.5;" width="10" x="369.5" y="175"/><rect fill="#FEFECE" height="5" style="stroke: #A80036; stroke-width: 1.5;" width="10" x="369.5" y="196.2969"/><text fill="#000000" font-family="sans-serif" font-size="14" lengthAdjust="spacingAndGlyphs" textLength="263" x="384.5" y="192.9951">com.example.greeter:date-util@2.0.0</text><!--MD5=[b7fe19722e43fde035789f22b3a948d2]
entity com.example.greeter:greeter-en@1.0.0--><rect fill="#FEFECE" filter="url(#f1vfaf3uqcg5f2)" height="36.2969" style="stroke: #A80036; stroke-width: 1.5;" width="300" x="714" y="170"/><rect fill="#FEFECE" height="5" style="stroke: #A80036; stroke-width: 1.5;" width="10" x="709" y="175"/><rect fill="#FEFECE" height="5" style="stroke: #A80036; stroke-width: 1.5;" width="10" x="709" y="196.2969"/><text fill="#000000" font-family="sans-serif" font-size="14" lengthAdjust="spacingAndGlyphs" textLength="280" x="724" y="192.9951">com.example.greeter:greeter-en@1.0.0</text><!--MD5=[d03a5b3e1255e832cc97fa9c1f41fac5]
entity com.example.greeter:date-util@1.0.0--><rect fill="#FEFECE" filter="url(#f1vfaf3uqcg5f2)" height="36.2969" style="stroke: #A80036; stroke-width: 1.5;" width="284" x="1049" y="170"/><rect fill="#FEFECE" height="5" style="stroke: #A80036; stroke-width: 1.5;" width="10" x="1044" y="175"/><rect fill="#FEFECE" height="5" style="stroke: #A80036; stroke-width: 1.5;" width="10" x="1044" y="196.2969"/><text fill="#000000" font-family="sans-serif" font-size="14" lengthAdjust="spacingAndGlyphs" textLength="264" x="1059" y="192.9951">com.example.greeter:date-util@1.0.0</text><!--MD5=[b255b53a4ea88732da15cf1d629a2303]
entity com.example.greeter:greeter-fr@1.0.0--><rect fill="#FEFECE" filter="url(#f1vfaf3uqcg5f2)" height="36.2969" style="stroke: #A80036; stroke-width: 1.5;" width="294" x="1389" y="170"/><rect fill="#FEFECE" height="5" style="stroke: #A80036; stroke-width: 1.5;" width="10" x="1384" y="175"/><rect fill="#FEFECE" height="5" style="stroke: #A80036; stroke-width: 1.5;" width="10" x="1384" y="196.2969"/><text fill="#000000" font-family="sans-serif" font-size="14" lengthAdjust="spacingAndGlyphs" textLength="274" x="1399" y="192.9951">com.example.greeter:greeter-fr@1.0.0</text><!--MD5=[a0e738d8e9536894a10ab9e80476e0c3]
entity com.example.greeter:date-util@3.0.0--><rect fill="#FEFECE" filter="url(#f1vfaf3uqcg5f2)" height="36.2969" style="stroke: #A80036; stroke-width: 1.5;" width="283" x="1718.5" y="170"/><rect fill="#FEFECE" height="5" style="stroke: #A80036; stroke-width: 1.5;" width="10" x="1713.5" y="175"/><rect fill="#FEFECE" height="5" style="stroke: #A80036; stroke-width: 1.5;" width="10" x="1713.5" y="196.2969"/><text fill="#000000" font-family="sans-serif" font-size="14" lengthAdjust="spacingAndGlyphs" textLength="263" x="1728.5" y="192.9951">com.example.greeter:date-util@3.0.0</text><!--MD5=[1b37096231e1a4d4b5fdf9e3cc0fae0d]
entity com.example.greeter:greeter-app@1.0.0--><rect fill="#FEFECE" filter="url(#f1vfaf3uqcg5f2)" height="36.2969" style="stroke: #A80036; stroke-width: 1.5;" width="309" x="709.5" y="281"/><rect fill="#FEFECE" height="5" style="stroke: #A80036; stroke-width: 1.5;" width="10" x="704.5" y="286"/><rect fill="#FEFECE" height="5" style="stroke: #A80036; stroke-width: 1.5;" width="10" x="704.5" y="307.2969"/><text fill="#000000" font-family="sans-serif" font-size="14" lengthAdjust="spacingAndGlyphs" textLength="289" x="719.5" y="303.9951">com.example.greeter:greeter-app@1.0.0</text><!--MD5=[c4879f84abf1d0eb79b8bf242dbcb40c]
reverse link com.example.greeter:greeter-api@1.0.0 to com.example.greeter:greeter-de@1.0.0--><path d="M707.358,83.17 C606.361,88.942 472.745,101.155 357,127 C311.66,137.124 261.775,155.983 228.237,169.865 " fill="none" id="com.example.greeter:greeter-api@1.0.0&lt;-com.example.greeter:greeter-de@1.0.0" style="stroke: #A80036; stroke-width: 1.0;"/><polygon fill="#A80036" points="712.445,82.883,703.2342,79.3958,707.4529,83.1644,703.6844,87.3832,712.445,82.883" style="stroke: #A80036; stroke-width: 1.0;"/><!--MD5=[1811597eba4a5fcf8115fb25343ee6a9]
link com.example.greeter:greeter-de@1.0.0 to com.example.greeter:date-util@2.0.0--><path d="M339.727,188 C349.597,188 359.467,188 369.338,188 " fill="none" id="com.example.greeter:greeter-de@1.0.0-&gt;com.example.greeter:date-util@2.0.0" style="stroke: #A80036; stroke-width: 1.0;"/><polygon fill="#A80036" points="374.499,188,365.499,184,369.499,188,365.499,192,374.499,188" style="stroke: #A80036; stroke-width: 1.0;"/><!--MD5=[1356b0d661bc36fb0c126674c50a25c6]
reverse link com.example.greeter:greeter-api@1.0.0 to com.example.greeter:greeter-en@1.0.0--><path d="M864,100.037 C864,120.6 864,150.864 864,169.729 " fill="none" id="com.example.greeter:greeter-api@1.0.0&lt;-com.example.greeter:greeter-en@1.0.0" style="stroke: #A80036; stroke-width: 1.0;"/><polygon fill="#A80036" points="864,95.031,860,104.031,864,100.031,868,104.031,864,95.031" style="stroke: #A80036; stroke-width: 1.0;"/><!--MD5=[3f24da17f0de4a8dd055f7fed0e436a8]
link com.example.greeter:greeter-en@1.0.0 to com.example.greeter:date-util@1.0.0--><path d="M1014.09,188 C1023.99,188 1033.9,188 1043.81,188 " fill="none" id="com.example.greeter:greeter-en@1.0.0-&gt;com.example.greeter:date-util@1.0.0" style="stroke: #A80036; stroke-width: 1.0;"/><polygon fill="#A80036" points="1048.99,188,1039.99,184,1043.99,188,1039.99,192,1048.99,188" style="stroke: #A80036; stroke-width: 1.0;"/><!--MD5=[bd449bf53b1f824537372d23e288a7c3]
reverse link com.example.greeter:greeter-api@1.0.0 to com.example.greeter:greeter-fr@1.0.0--><path d="M1020.82,85.484 C1116.42,92.108 1240.65,104.405 1349,127 C1398.9,137.406 1454.29,156.12 1491.74,169.89 " fill="none" id="com.example.greeter:greeter-api@1.0.0&lt;-com.example.greeter:greeter-fr@1.0.0" style="stroke: #A80036; stroke-width: 1.0;"/><polygon fill="#A80036" points="1015.72,85.134,1024.4246,89.7417,1020.7082,85.4768,1024.9731,81.7605,1015.72,85.134" style="stroke: #A80036; stroke-width: 1.0;"/><!--MD5=[f3069cff8d8151a7fc4eaaea91e8003f]
link com.example.greeter:greeter-fr@1.0.0 to com.example.greeter:date-util@3.0.0--><path d="M1683.13,188 C1693.13,188 1703.13,188 1713.13,188 " fill="none" id="com.example.greeter:greeter-fr@1.0.0-&gt;com.example.greeter:date-util@3.0.0" style="stroke: #A80036; stroke-width: 1.0;"/><polygon fill="#A80036" points="1718.36,188,1709.36,184,1713.36,188,1709.36,192,1718.36,188" style="stroke: #A80036; stroke-width: 1.0;"/><!--MD5=[dca280457954fd79fa649488d08ebb43]
reverse link com.example.greeter:greeter-de@1.0.0 to com.example.greeter:greeter-app@1.0.0--><path d="M257.287,207.406 C287.657,215.141 323.951,223.769 357,230 C474.489,252.1508 608.618,269.8097 709.395,281.5752 " fill="none" id="com.example.greeter:greeter-de@1.0.0&lt;-com.example.greeter:greeter-app@1.0.0" style="stroke: #A80036; stroke-width: 1.0;"/><polygon fill="#A80036" points="252.077,206.073,259.804,212.1799,256.9208,207.3129,261.7878,204.4297,252.077,206.073" style="stroke: #A80036; stroke-width: 1.0;"/><!--MD5=[207d283bfd2d39dc5cbf689cd4a5e973]
reverse link com.example.greeter:greeter-en@1.0.0 to com.example.greeter:greeter-app@1.0.0--><path d="M864,211.037 C864,231.6 864,261.864 864,280.7286 " fill="none" id="com.example.greeter:greeter-en@1.0.0&lt;-com.example.greeter:greeter-app@1.0.0" style="stroke: #A80036; stroke-width: 1.0;"/><polygon fill="#A80036" points="864,206.031,860,215.031,864,211.031,868,215.031,864,206.031" style="stroke: #A80036; stroke-width: 1.0;"/><!--MD5=[f2ddb29a10aab148461d4d7f69575936]
reverse link com.example.greeter:greeter-fr@1.0.0 to com.example.greeter:greeter-app@1.0.0--><path d="M1459.4,207.182 C1425.66,214.83 1385.48,223.453 1349,230 C1234.14,250.6128 1103.03,268.669 1006.11,280.9851 " fill="none" id="com.example.greeter:greeter-fr@1.0.0&lt;-com.example.greeter:greeter-app@1.0.0" style="stroke: #A80036; stroke-width: 1.0;"/><polygon fill="#A80036" points="1464.33,206.061,1454.6704,204.1398,1459.4526,207.1614,1456.431,211.9436,1464.33,206.061" style="stroke: #A80036; stroke-width: 1.0;"/><!--MD5=[34224dfce09e6fe470ab813101c8aa94]
@startuml
package "api" {
  [com.example.greeter:greeter-api@1.0.0]
}
 
package "greeter-de" {
  [com.example.greeter:greeter-de@1.0.0]
  [com.example.greeter:greeter-de@1.0.0] -up-> [com.example.greeter:greeter-api@1.0.0]
  [com.example.greeter:greeter-de@1.0.0] -right-> [com.example.greeter:date-util@2.0.0]
}

package "greeter-en" {
  [com.example.greeter:greeter-en@1.0.0]
  [com.example.greeter:greeter-en@1.0.0] -up-> [com.example.greeter:greeter-api@1.0.0]
  [com.example.greeter:greeter-en@1.0.0] -right-> [com.example.greeter:date-util@1.0.0]
}

package "greeter-fr" {
  [com.example.greeter:greeter-fr@1.0.0]
  [com.example.greeter:greeter-fr@1.0.0] -up-> [com.example.greeter:greeter-api@1.0.0]
  [com.example.greeter:greeter-fr@1.0.0] -right-> [com.example.greeter:date-util@3.0.0]
}

package "app" {
  [com.example.greeter:greeter-app@1.0.0]
  [com.example.greeter:greeter-app@1.0.0] -up-> [com.example.greeter:greeter-de@1.0.0]
  [com.example.greeter:greeter-app@1.0.0] -up-> [com.example.greeter:greeter-en@1.0.0]
  [com.example.greeter:greeter-app@1.0.0] -up-> [com.example.greeter:greeter-fr@1.0.0]
}
@enduml

PlantUML version 1.2020.07beta13(Unknown compile time)
(GPL source distribution)
Java Runtime: Java(TM) SE Runtime Environment
JVM: Java HotSpot(TM) 64-Bit Server VM
Java Version: 14.0.1+7
Operating System: Linux
Default Encoding: UTF-8
Language: en
Country: US
--></g></svg>